<?xml version="1.0" encoding="utf-8"?>
<!-- Generator: Adobe Illustrator 15.0.0, SVG Export Plug-In . SVG Version: 6.00 Build 0)  -->
<!DOCTYPE svg PUBLIC "-//W3C//DTD SVG 1.1//EN" "http://www.w3.org/Graphics/SVG/1.1/DTD/svg11.dtd">
<svg version="1.1" id="Capa_1" xmlns="http://www.w3.org/2000/svg" xmlns:xlink="http://www.w3.org/1999/xlink" x="0px" y="0px"
	 width="100px" height="30.626px" viewBox="0 0 709.946 217.426" enable-background="new 0 0 709.946 217.426"
	 xml:space="preserve">
<g>
	<defs>
		<path id="SVGID_1_" d="M235.822,91.199l-5.105,29.224h32.745l-7.215,40.672c-2.998,16.72-13.212,25.698-27.818,25.698
			c-12.146,0-21.127-7.044-18.132-25.53h-33.978c-6.867,38.557,12.328,55.802,47.881,55.802c42.082,0,61.266-23.405,66.901-55.802
			l12.32-70.063H235.822z"/>
	</defs>
	<clipPath id="SVGID_2_">
		<use xlink:href="#SVGID_1_"  overflow="visible"/>
	</clipPath>
	
		<linearGradient id="SVGID_3_" gradientUnits="userSpaceOnUse" x1="-148.7764" y1="508.2656" x2="-147.7764" y2="508.2656" gradientTransform="matrix(-5.500000e-006 125.8652 125.8652 5.500000e-006 -63736.4727 18816.9375)">
		<stop  offset="0" style="stop-color:#FF1D1D"/>
		<stop  offset="0.3645" style="stop-color:#E71313"/>
		<stop  offset="0.7247" style="stop-color:#D70C0C"/>
		<stop  offset="1" style="stop-color:#D10909"/>
	</linearGradient>
	<rect x="169.452" y="91.199" clip-path="url(#SVGID_2_)" fill="url(#SVGID_3_)" width="133.969" height="125.865"/>
</g>
<g>
	<defs>
		<path id="SVGID_4_" d="M344.16,158.798c0.357-23.234,18.484-40.838,41.016-40.838c17.78,0,27.996,11.087,27.644,28.341
			c-0.35,23.593-17.78,41.368-41.194,41.368C354.371,187.669,343.808,175.878,344.16,158.798 M308.952,164.259
			c0.531,33.804,23.766,53.167,59.325,53.167c46.128,0,80.628-28.696,79.747-76.051c-0.521-33.629-23.768-53.165-59.322-53.165
			C342.934,88.21,308.071,117.61,308.952,164.259"/>
	</defs>
	<clipPath id="SVGID_5_">
		<use xlink:href="#SVGID_4_"  overflow="visible"/>
	</clipPath>
	
		<linearGradient id="SVGID_6_" gradientUnits="userSpaceOnUse" x1="-148.7729" y1="508.2881" x2="-147.7729" y2="508.2881" gradientTransform="matrix(-5.600000e-006 129.2173 129.2173 5.600000e-006 -65301.1563 19312.2188)">
		<stop  offset="0" style="stop-color:#FF1D1D"/>
		<stop  offset="0.3645" style="stop-color:#E71313"/>
		<stop  offset="0.7247" style="stop-color:#D70C0C"/>
		<stop  offset="1" style="stop-color:#D10909"/>
	</linearGradient>
	<rect x="308.071" y="88.21" clip-path="url(#SVGID_5_)" fill="url(#SVGID_6_)" width="140.833" height="129.216"/>
</g>
<g>
	<defs>
		<path id="SVGID_7_" d="M457.792,165.134c0,27.995,15.838,52.464,57.39,52.464c18.661,0,36.444-5.45,52.814-19.184l-16.37-22.884
			c-10.394,8.968-22.896,12.496-31.163,12.496c-20.603,0-27.637-14.262-27.637-28.168c0-17.778,12.85-41.371,39.784-41.371
			c8.271,0,17.071,2.289,24.47,10.741l25.171-21.129c-11.62-13.554-26.583-19.718-44.358-19.718
			C485.958,88.381,457.792,128.695,457.792,165.134"/>
	</defs>
	<clipPath id="SVGID_8_">
		<use xlink:href="#SVGID_7_"  overflow="visible"/>
	</clipPath>
	
		<linearGradient id="SVGID_9_" gradientUnits="userSpaceOnUse" x1="-148.7729" y1="508.2891" x2="-147.7729" y2="508.2891" gradientTransform="matrix(-5.600000e-006 129.2183 129.2183 5.600000e-006 -65160.1523 19312.4922)">
		<stop  offset="0" style="stop-color:#FF1D1D"/>
		<stop  offset="0.3645" style="stop-color:#E71313"/>
		<stop  offset="0.7247" style="stop-color:#D70C0C"/>
		<stop  offset="1" style="stop-color:#D10909"/>
	</linearGradient>
	<rect x="457.792" y="88.381" clip-path="url(#SVGID_8_)" fill="url(#SVGID_9_)" width="124.459" height="129.217"/>
</g>
<g>
	<defs>
		<path id="SVGID_10_" d="M668.576,91.199c-12.669,13.031-26.579,26.761-39.43,39.783l7.045-39.783h-34.862l-21.65,123.229h34.859
			l7.92-43.832l12.501,21.651l15.668,22.181h42.247l0.35-2.113c-13.549-19.537-29.567-39.956-43.48-58.971l60.203-60.031
			l0.359-2.115H668.576z"/>
	</defs>
	<clipPath id="SVGID_11_">
		<use xlink:href="#SVGID_10_"  overflow="visible"/>
	</clipPath>
	
		<linearGradient id="SVGID_12_" gradientUnits="userSpaceOnUse" x1="-148.7788" y1="508.2852" x2="-147.7788" y2="508.2852" gradientTransform="matrix(-5.400000e-006 123.2305 123.2305 5.400000e-006 -61991.2031 18425.2773)">
		<stop  offset="0" style="stop-color:#FF1D1D"/>
		<stop  offset="0.3645" style="stop-color:#E71313"/>
		<stop  offset="0.7247" style="stop-color:#D70C0C"/>
		<stop  offset="1" style="stop-color:#D10909"/>
	</linearGradient>
	<rect x="579.678" y="91.199" clip-path="url(#SVGID_11_)" fill="url(#SVGID_12_)" width="130.627" height="123.229"/>
</g>
<g>
	<defs>
		<polygon id="SVGID_13_" points="0,214.576 83.075,131.5 63.645,112.071 		"/>
	</defs>
	<clipPath id="SVGID_14_">
		<use xlink:href="#SVGID_13_"  overflow="visible"/>
	</clipPath>
	
		<linearGradient id="SVGID_15_" gradientUnits="userSpaceOnUse" x1="-149.1094" y1="508.625" x2="-148.1094" y2="508.625" gradientTransform="matrix(24.1774 28.8134 28.8134 -24.1774 -11024.7285 16737.6914)">
		<stop  offset="0" style="stop-color:#FF1D1D"/>
		<stop  offset="0.3645" style="stop-color:#E71313"/>
		<stop  offset="0.7247" style="stop-color:#D70C0C"/>
		<stop  offset="1" style="stop-color:#D10909"/>
	</linearGradient>
	<polygon clip-path="url(#SVGID_14_)" fill="url(#SVGID_15_)" points="48.75,71.165 133.549,172.224 34.325,255.482 
		-50.474,154.424 	"/>
</g>
<g>
	<defs>
		<polygon id="SVGID_16_" points="64.556,38.261 42.448,99.228 83.986,57.692 125.423,99.132 125.577,98.976 144.16,80.392 
			144.258,80.489 186.277,38.475 125.844,60.688 85.248,20.09 83.986,18.829 		"/>
	</defs>
	<clipPath id="SVGID_17_">
		<use xlink:href="#SVGID_16_"  overflow="visible"/>
	</clipPath>
	
		<linearGradient id="SVGID_18_" gradientUnits="userSpaceOnUse" x1="-148.8457" y1="508.4678" x2="-147.8457" y2="508.4678" gradientTransform="matrix(56.6626 67.5279 67.5279 -56.6626 -25819.7656 38882.8789)">
		<stop  offset="0" style="stop-color:#FF1D1D"/>
		<stop  offset="0.3645" style="stop-color:#E71313"/>
		<stop  offset="0.7247" style="stop-color:#D70C0C"/>
		<stop  offset="1" style="stop-color:#D10909"/>
	</linearGradient>
	<polygon clip-path="url(#SVGID_17_)" fill="url(#SVGID_18_)" points="126.851,-51.993 225.866,66.009 101.875,170.05 2.859,52.048 
			"/>
</g>
<g>
	<defs>
		<polygon id="SVGID_19_" points="126.35,39.359 146.034,19.679 126.35,0 		"/>
	</defs>
	<clipPath id="SVGID_20_">
		<use xlink:href="#SVGID_19_"  overflow="visible"/>
	</clipPath>
	
		<linearGradient id="SVGID_21_" gradientUnits="userSpaceOnUse" x1="-149.2231" y1="508.6953" x2="-148.2231" y2="508.6953" gradientTransform="matrix(19.3803 23.0965 23.0965 -19.3803 -8734.6797 13308.4902)">
		<stop  offset="0" style="stop-color:#FF1D1D"/>
		<stop  offset="0.3645" style="stop-color:#E71313"/>
		<stop  offset="0.7247" style="stop-color:#D70C0C"/>
		<stop  offset="1" style="stop-color:#D10909"/>
	</linearGradient>
	<polygon clip-path="url(#SVGID_20_)" fill="url(#SVGID_21_)" points="137.901,-9.692 165.415,23.097 134.483,49.052 106.97,16.262 
			"/>
</g>
<g>
	<defs>
		<path id="SVGID_22_" d="M110.786,159.209l12.468,12.468l1.251,1.254L110.786,159.209z M82.921,92.794l-19.276,19.277
			l41.539,41.536l-22.588,61.45l42.018-42.017l-0.101-0.102l19.432-19.434L83.078,92.639L82.921,92.794z"/>
	</defs>
	<clipPath id="SVGID_23_">
		<use xlink:href="#SVGID_22_"  overflow="visible"/>
	</clipPath>
	
		<linearGradient id="SVGID_24_" gradientUnits="userSpaceOnUse" x1="-148.835" y1="508.5254" x2="-147.8346" y2="508.5254" gradientTransform="matrix(60.0806 71.6012 71.6012 -60.0806 -27403.8379 41316.9961)">
		<stop  offset="0" style="stop-color:#FF1D1D"/>
		<stop  offset="0.3645" style="stop-color:#E71313"/>
		<stop  offset="0.7247" style="stop-color:#D70C0C"/>
		<stop  offset="1" style="stop-color:#D10909"/>
	</linearGradient>
	<polygon clip-path="url(#SVGID_23_)" fill="url(#SVGID_24_)" points="110.767,53.099 204.224,164.477 96.823,254.598 3.366,143.22 
			"/>
</g>
<g>
	<defs>
		<rect id="SVGID_25_" x="-156.65" y="-275.505" width="1024" height="768"/>
	</defs>
	<clipPath id="SVGID_26_">
		<use xlink:href="#SVGID_25_"  overflow="visible"/>
	</clipPath>
	<polygon clip-path="url(#SVGID_26_)" fill="#7F0000" points="256.549,19.955 247.653,70.453 278.919,70.453 277.393,79.262 
		236.638,79.262 247.06,19.955 	"/>
	<path clip-path="url(#SVGID_26_)" fill="#7F0000" d="M329.864,79.262h-43.8c3.471-19.74,6.945-39.569,10.419-59.307h41.771
		l-1.526,8.98h-32.281l-2.882,16.269h30.674l-1.526,8.809h-30.669l-2.884,15.929h34.314L329.864,79.262z"/>
	<polygon clip-path="url(#SVGID_26_)" fill="#7F0000" points="363.188,28.511 343.704,28.511 345.23,19.955 393.692,19.955 
		392.168,28.511 372.766,28.511 363.784,79.262 354.21,79.262 	"/>
	<polygon clip-path="url(#SVGID_26_)" fill="#7F0000" points="401.948,19.955 409.174,19.955 401.814,34.075 396.258,34.075 	"/>
	<path clip-path="url(#SVGID_26_)" fill="#7F0000" d="M408.69,62.74c3.559,5.59,9.911,8.556,17.031,8.643
		c8.385,0.082,16.774-2.966,16.774-10.425c0-6.01-6.187-7.539-13.641-8.553c-9.913-1.355-20.927-5.003-20.083-16.691
		c0.936-12.712,13.475-17.454,24.572-17.454c8.559,0,17.453,2.285,21.439,10.164l-7.541,4.834c-2.122-4.07-8.309-6.698-14.406-6.78
		c-8.727,0-14.572,3.814-14.572,9.911c0,5,5.933,6.695,12.963,7.712c10.844,1.527,20.845,4.914,20.926,16.269
		c0.087,14.062-12.114,19.909-26.601,19.909c-9.745,0-19.403-3.393-23.726-11.1L408.69,62.74z"/>
</g>
<g>
	<defs>
		<polygon id="SVGID_27_" points="0,214.576 83.075,131.5 63.645,112.071 		"/>
	</defs>
	<clipPath id="SVGID_28_">
		<use xlink:href="#SVGID_27_"  overflow="visible"/>
	</clipPath>
	
		<linearGradient id="SVGID_29_" gradientUnits="userSpaceOnUse" x1="-148.7456" y1="508.542" x2="-147.7456" y2="508.542" gradientTransform="matrix(83.0742 0 0 -83.0742 12356.9492 42410.0039)">
		<stop  offset="0" style="stop-color:#7F0000"/>
		<stop  offset="0.2514" style="stop-color:#7B0201"/>
		<stop  offset="0.5118" style="stop-color:#6E0903"/>
		<stop  offset="0.7755" style="stop-color:#5A1407"/>
		<stop  offset="1" style="stop-color:#42210B"/>
	</linearGradient>
	<rect y="112.071" clip-path="url(#SVGID_28_)" fill="url(#SVGID_29_)" width="83.075" height="102.505"/>
</g>
<g>
	<defs>
		<polygon id="SVGID_30_" points="82.596,215.058 124.614,173.041 105.185,153.606 		"/>
	</defs>
	<clipPath id="SVGID_31_">
		<use xlink:href="#SVGID_30_"  overflow="visible"/>
	</clipPath>
	
		<linearGradient id="SVGID_32_" gradientUnits="userSpaceOnUse" x1="-148.46" y1="507.9736" x2="-147.46" y2="507.9736" gradientTransform="matrix(-42.0186 0 0 42.0186 -6113.4541 -21159.9805)">
		<stop  offset="0" style="stop-color:#7F0000"/>
		<stop  offset="0.8686" style="stop-color:#C60808"/>
		<stop  offset="1" style="stop-color:#D10909"/>
	</linearGradient>
	<rect x="82.596" y="153.606" clip-path="url(#SVGID_31_)" fill="url(#SVGID_32_)" width="42.018" height="61.451"/>
</g>
<g>
	<defs>
		<polygon id="SVGID_33_" points="42.448,99.228 83.986,57.692 64.556,38.261 		"/>
	</defs>
	<clipPath id="SVGID_34_">
		<use xlink:href="#SVGID_33_"  overflow="visible"/>
	</clipPath>
	
		<linearGradient id="SVGID_35_" gradientUnits="userSpaceOnUse" x1="-148.5435" y1="508.0322" x2="-147.543" y2="508.0322" gradientTransform="matrix(-47.3881 8.3558 8.3558 47.3881 -11198.9668 -22768.6172)">
		<stop  offset="0" style="stop-color:#7F0000"/>
		<stop  offset="0.8686" style="stop-color:#C60808"/>
		<stop  offset="1" style="stop-color:#D10909"/>
	</linearGradient>
	<polygon clip-path="url(#SVGID_34_)" fill="url(#SVGID_35_)" points="94.412,97.39 43.701,106.332 32.022,40.1 82.733,31.158 	"/>
</g>
<g>
	<defs>
		<polygon id="SVGID_36_" points="124.828,61.061 144.258,80.489 186.277,38.475 		"/>
	</defs>
	<clipPath id="SVGID_37_">
		<use xlink:href="#SVGID_36_"  overflow="visible"/>
	</clipPath>
	
		<linearGradient id="SVGID_38_" gradientUnits="userSpaceOnUse" x1="-148.5195" y1="508.0918" x2="-147.5195" y2="508.0918" gradientTransform="matrix(-61.4487 5.400000e-006 5.400000e-006 61.4487 -8940.0801 -31162.1172)">
		<stop  offset="0" style="stop-color:#7F0000"/>
		<stop  offset="0.2514" style="stop-color:#7B0201"/>
		<stop  offset="0.5118" style="stop-color:#6E0903"/>
		<stop  offset="0.7755" style="stop-color:#5A1407"/>
		<stop  offset="1" style="stop-color:#42210B"/>
	</linearGradient>
	<rect x="124.828" y="38.475" clip-path="url(#SVGID_37_)" fill="url(#SVGID_38_)" width="61.449" height="42.014"/>
</g>
<g>
	<defs>
		<rect id="SVGID_39_" x="-156.65" y="-275.505" width="1024" height="768"/>
	</defs>
	<clipPath id="SVGID_40_">
		<use xlink:href="#SVGID_39_"  overflow="visible"/>
	</clipPath>
	<polyline clip-path="url(#SVGID_40_)" fill="#FF1D1D" points="125.885,39.359 145.568,19.679 125.885,0 	"/>
</g>
<g>
	<defs>
		<polygon id="SVGID_41_" points="63.645,112.071 123.254,171.677 82.921,92.794 		"/>
	</defs>
	<clipPath id="SVGID_42_">
		<use xlink:href="#SVGID_41_"  overflow="visible"/>
	</clipPath>
	
		<linearGradient id="SVGID_43_" gradientUnits="userSpaceOnUse" x1="-148.7837" y1="508.6162" x2="-147.7837" y2="508.6162" gradientTransform="matrix(59.6099 0 0 -59.6099 8932.6309 30450.793)">
		<stop  offset="0" style="stop-color:#FF1D1D"/>
		<stop  offset="0.3645" style="stop-color:#E71313"/>
		<stop  offset="0.7247" style="stop-color:#D70C0C"/>
		<stop  offset="1" style="stop-color:#D10909"/>
	</linearGradient>
	<rect x="63.645" y="92.794" clip-path="url(#SVGID_42_)" fill="url(#SVGID_43_)" width="59.609" height="78.883"/>
</g>
<g>
	<defs>
		<rect id="SVGID_44_" x="-156.65" y="-275.505" width="1024" height="768"/>
	</defs>
	<clipPath id="SVGID_45_">
		<use xlink:href="#SVGID_44_"  overflow="visible"/>
	</clipPath>
	<polygon clip-path="url(#SVGID_45_)" fill="#C60505" points="144.854,79.698 85.249,20.091 125.578,98.976 	"/>
</g>
<g>
	<defs>
		<polygon id="SVGID_46_" points="64.556,38.261 125.423,99.132 125.577,98.976 85.248,20.09 83.986,18.829 		"/>
	</defs>
	<clipPath id="SVGID_47_">
		<use xlink:href="#SVGID_46_"  overflow="visible"/>
	</clipPath>
	
		<linearGradient id="SVGID_48_" gradientUnits="userSpaceOnUse" x1="-148.4492" y1="508.9971" x2="-147.4492" y2="508.9971" gradientTransform="matrix(22.42 -26.7192 -26.7192 -22.42 17016.0254 7512.8779)">
		<stop  offset="0" style="stop-color:#FF1D1D"/>
		<stop  offset="0.3645" style="stop-color:#E71313"/>
		<stop  offset="0.7247" style="stop-color:#D70C0C"/>
		<stop  offset="1" style="stop-color:#D10909"/>
	</linearGradient>
	<polygon clip-path="url(#SVGID_47_)" fill="url(#SVGID_48_)" points="25.015,65.953 89.769,-11.218 165.119,52.008 
		100.365,129.179 	"/>
</g>
<g>
	<defs>
		<polygon id="SVGID_49_" points="82.921,92.794 123.254,171.677 124.513,172.939 143.945,153.506 83.078,92.639 		"/>
	</defs>
	<clipPath id="SVGID_50_">
		<use xlink:href="#SVGID_49_"  overflow="visible"/>
	</clipPath>
	
		<linearGradient id="SVGID_51_" gradientUnits="userSpaceOnUse" x1="-148.8457" y1="508.4385" x2="-147.8461" y2="508.4385" gradientTransform="matrix(56.6601 67.5249 67.5249 -56.6601 -25817.4785 38953.2813)">
		<stop  offset="0" style="stop-color:#FF1D1D"/>
		<stop  offset="0.3645" style="stop-color:#E71313"/>
		<stop  offset="0.7247" style="stop-color:#D70C0C"/>
		<stop  offset="1" style="stop-color:#D10909"/>
	</linearGradient>
	<polygon clip-path="url(#SVGID_50_)" fill="url(#SVGID_51_)" points="118.731,62.591 183.485,139.761 108.135,202.987 
		43.381,125.817 	"/>
</g>
</svg>
